<svg width="175" height="32" viewBox="0 0 175 32" fill="none" xmlns="http://www.w3.org/2000/svg">
<path fill-rule="evenodd" clip-rule="evenodd" d="M8.84071 8.83305C11.0535 4.96283 15.2227 2.34918 20 2.34918C25.9973 2.34918 31.027 6.44985 32.4457 12.0167C36.7195 12.6571 40 16.3062 40 20.7619C40 25.6688 36.018 29.6508 31.1111 29.6508C30.5851 29.6508 30.1587 29.2244 30.1587 28.6984C30.1587 28.1724 30.5851 27.746 31.1111 27.746C34.9661 27.746 38.0952 24.6168 38.0952 20.7619C38.0952 17.0815 35.2383 14.0908 31.6009 13.839L30.8733 13.7886L30.7323 13.073C29.7391 8.03433 25.3138 4.25394 20 4.25394C15.7821 4.25394 12.116 6.64665 10.2891 10.1542L10.0531 10.6073L9.54513 10.6613C5.24758 11.1182 1.90476 14.7609 1.90476 19.1746C1.90476 23.9026 5.74821 27.746 10.4762 27.746C11.0022 27.746 11.4286 28.1724 11.4286 28.6984C11.4286 29.2244 11.0022 29.6508 10.4762 29.6508C4.69624 29.6508 0 24.9545 0 19.1746C0 13.9521 3.82744 9.61328 8.84071 8.83305Z" fill="#1A1919"/>
<g clip-path="url(#clip0_1218_12819)">
<path d="M25.0631 16.9266L19.4121 11.0989L10.7883 19.8481L19.2642 28.5926L24.653 23.2832" stroke="#F48220" stroke-width="1.86529" stroke-linejoin="round"/>
<path d="M26.0911 24.9294L28.7753 22.1837L26.0911 19.4375" stroke="#9A0000" stroke-width="1.86529" stroke-linejoin="round"/>
<path d="M23.5077 19.9605L19.3206 24.2973L14.9539 19.8298L19.3079 15.3752L23.5077 19.9605Z" stroke="#9A0000" stroke-width="1.87"/>
</g>
<path d="M51.68 22V8H57.4C59.0533 8 60.36 8.44667 61.32 9.34C62.28 10.22 62.76 11.3867 62.76 12.84V12.88C62.76 14.44 62.2267 15.6533 61.16 16.52C60.0933 17.3733 58.74 17.8 57.1 17.8H54.76V22H51.68ZM54.76 15.06H57.2C57.9467 15.06 58.54 14.86 58.98 14.46C59.42 14.06 59.64 13.5533 59.64 12.94V12.9C59.64 12.22 59.42 11.7 58.98 11.34C58.54 10.9667 57.9267 10.78 57.14 10.78H54.76V15.06ZM64.8594 22V7.4H67.8994V22H64.8594ZM74.3145 22.2C73.1679 22.2 72.2745 21.8467 71.6345 21.14C70.9945 20.4333 70.6745 19.46 70.6745 18.22V11.28H73.7145V17.26C73.7145 17.9667 73.8745 18.5067 74.1945 18.88C74.5145 19.2533 74.9679 19.44 75.5545 19.44C76.1412 19.44 76.6012 19.2533 76.9345 18.88C77.2812 18.5067 77.4545 17.9667 77.4545 17.26V11.28H80.4945V22H77.4545V20.48C76.5612 21.6267 75.5145 22.2 74.3145 22.2ZM88.0155 25.24C86.2688 25.24 84.6888 24.8667 83.2755 24.12L84.3155 21.84C85.4755 22.4933 86.6821 22.82 87.9355 22.82C89.9755 22.82 90.9955 21.8467 90.9955 19.9V19.38C90.5155 19.9667 90.0021 20.4067 89.4555 20.7C88.9221 20.98 88.2688 21.12 87.4955 21.12C86.1755 21.12 85.0488 20.6733 84.1155 19.78C83.1955 18.8733 82.7355 17.6533 82.7355 16.12V16.08C82.7355 14.5467 83.2021 13.3333 84.1355 12.44C85.0688 11.5333 86.1888 11.08 87.4955 11.08C88.8288 11.08 89.9821 11.6133 90.9555 12.68V11.28H93.9955V19.58C93.9955 21.4867 93.5421 22.8933 92.6355 23.8C91.6755 24.76 90.1355 25.24 88.0155 25.24ZM86.5155 17.92C87.0088 18.3733 87.6288 18.6 88.3755 18.6C89.1221 18.6 89.7421 18.3667 90.2355 17.9C90.7421 17.4333 90.9955 16.84 90.9955 16.12V16.08C90.9955 15.36 90.7421 14.7667 90.2355 14.3C89.7421 13.8333 89.1221 13.6 88.3755 13.6C87.6288 13.6 87.0088 13.8333 86.5155 14.3C86.0221 14.7667 85.7755 15.36 85.7755 16.08V16.12C85.7755 16.8533 86.0221 17.4533 86.5155 17.92ZM96.7716 10.1V7.4H99.9716V10.1H96.7716ZM96.8516 22V11.28H99.8916V22H96.8516ZM102.747 22V11.28H105.787V12.8C106.68 11.6533 107.727 11.08 108.927 11.08C110.073 11.08 110.967 11.4333 111.607 12.14C112.247 12.8467 112.567 13.82 112.567 15.06V22H109.527V16.02C109.527 15.3133 109.367 14.7733 109.047 14.4C108.727 14.0267 108.273 13.84 107.687 13.84C107.1 13.84 106.633 14.0267 106.287 14.4C105.953 14.7733 105.787 15.3133 105.787 16.02V22H102.747ZM126.504 22.2C124.21 22.2 122.23 21.4533 120.564 19.96L122.384 17.78C123.757 18.9133 125.15 19.48 126.564 19.48C127.19 19.48 127.684 19.3667 128.044 19.14C128.404 18.9 128.584 18.5733 128.584 18.16V18.12C128.584 17.72 128.397 17.4 128.024 17.16C127.65 16.9067 126.897 16.6333 125.764 16.34C124.964 16.14 124.317 15.9467 123.824 15.76C123.33 15.56 122.857 15.3 122.404 14.98C121.964 14.66 121.637 14.2667 121.424 13.8C121.224 13.32 121.124 12.74 121.124 12.06V12.02C121.124 10.7533 121.577 9.73333 122.484 8.96C123.404 8.18667 124.584 7.8 126.024 7.8C128.01 7.8 129.744 8.39333 131.224 9.58L129.624 11.9C128.304 10.98 127.09 10.52 125.984 10.52C125.41 10.52 124.964 10.6333 124.644 10.86C124.337 11.0867 124.184 11.38 124.184 11.74V11.78C124.184 12.2333 124.377 12.5733 124.764 12.8C125.15 13.0267 125.964 13.3 127.204 13.62C128.724 14.02 129.844 14.5333 130.564 15.16C131.284 15.7733 131.644 16.66 131.644 17.82V17.86C131.644 19.22 131.17 20.2867 130.224 21.06C129.29 21.82 128.05 22.2 126.504 22.2ZM137.519 22.18C136.519 22.18 135.746 21.94 135.199 21.46C134.666 20.9667 134.399 20.1333 134.399 18.96V13.88H133.119V11.28H134.399V8.54H137.439V11.28H139.959V13.88H137.439V18.46C137.439 19.1533 137.766 19.5 138.419 19.5C138.952 19.5 139.452 19.3733 139.919 19.12V21.56C139.226 21.9733 138.426 22.18 137.519 22.18ZM151.307 20.62C150.2 21.7 148.82 22.24 147.167 22.24C145.514 22.24 144.134 21.7067 143.027 20.64C141.934 19.56 141.387 18.2467 141.387 16.7V16.66C141.387 15.1 141.94 13.78 143.047 12.7C144.167 11.62 145.554 11.08 147.207 11.08C148.86 11.08 150.234 11.62 151.327 12.7C152.434 13.7667 152.987 15.0733 152.987 16.62V16.66C152.987 18.22 152.427 19.54 151.307 20.62ZM147.207 19.62C148.047 19.62 148.72 19.34 149.227 18.78C149.734 18.22 149.987 17.5267 149.987 16.7V16.66C149.987 15.8467 149.72 15.1533 149.187 14.58C148.667 13.9933 147.994 13.7 147.167 13.7C146.327 13.7 145.654 13.98 145.147 14.54C144.64 15.1 144.387 15.7933 144.387 16.62V16.66C144.387 17.4733 144.647 18.1733 145.167 18.76C145.7 19.3333 146.38 19.62 147.207 19.62ZM155.188 22V11.28H158.228V13.44C158.921 11.8 160.061 11.0133 161.648 11.08V14.26H161.488C160.448 14.26 159.641 14.58 159.068 15.22C158.508 15.8467 158.228 16.7867 158.228 18.04V22H155.188ZM168.335 22.24C166.708 22.24 165.368 21.7267 164.315 20.7C163.261 19.66 162.735 18.3267 162.735 16.7V16.66C162.735 15.1 163.235 13.78 164.235 12.7C165.235 11.62 166.501 11.08 168.035 11.08C169.728 11.08 171.021 11.64 171.915 12.76C172.808 13.88 173.255 15.26 173.255 16.9C173.255 17.06 173.241 17.3267 173.215 17.7H165.755C165.901 18.38 166.201 18.9 166.655 19.26C167.108 19.62 167.681 19.8 168.375 19.8C169.321 19.8 170.188 19.4333 170.975 18.7L172.715 20.24C171.635 21.5733 170.175 22.24 168.335 22.24ZM165.715 15.8H170.295C170.201 15.1067 169.955 14.5533 169.555 14.14C169.168 13.7267 168.661 13.52 168.035 13.52C167.421 13.52 166.908 13.7267 166.495 14.14C166.095 14.54 165.835 15.0933 165.715 15.8Z" fill="#1A1919"/>
<defs>
<clipPath id="clip0_1218_12819">
<rect width="20" height="19" fill="white" transform="translate(10 10.3492)"/>
</clipPath>
</defs>
</svg>
